<svg xmlns="http://www.w3.org/2000/svg" viewBox="0 0 120 120" fill="none">
  <defs>
    <linearGradient id="eh-icon-top" x1="60" y1="12" x2="60" y2="58" gradientUnits="userSpaceOnUse">
      <stop offset="0%" stop-color="#818CF8"/>
      <stop offset="100%" stop-color="#6366F1"/>
    </linearGradient>
    <linearGradient id="eh-icon-left" x1="16" y1="36" x2="60" y2="108" gradientUnits="userSpaceOnUse">
      <stop offset="0%" stop-color="#4F46E5"/>
      <stop offset="100%" stop-color="#3730A3"/>
    </linearGradient>
    <linearGradient id="eh-icon-right" x1="104" y1="36" x2="60" y2="108" gradientUnits="userSpaceOnUse">
      <stop offset="0%" stop-color="#7C3AED"/>
      <stop offset="100%" stop-color="#5B21B6"/>
    </linearGradient>
    <linearGradient id="eh-icon-inner" x1="40" y1="34" x2="80" y2="86" gradientUnits="userSpaceOnUse">
      <stop offset="0%" stop-color="#FFFFFF"/>
      <stop offset="100%" stop-color="#EEF2FF"/>
    </linearGradient>
  </defs>

  <!-- Isometric Hexagon 3D Box for Event Hive -->
  <path d="M60 14 L100 37 L60 60 L20 37 Z" fill="url(#eh-icon-top)"/>
  <path d="M20 37 L60 60 L60 106 L20 83 Z" fill="url(#eh-icon-left)"/>
  <path d="M60 60 L100 37 L100 83 L60 106 Z" fill="url(#eh-icon-right)"/>
  
  <!-- Central Cutout -->
  <path d="M60 38 L82 50.5 L82 75.5 L60 88 L38 75.5 L38 50.5 Z" fill="#0F172A" fill-opacity="0.25"/>
  <path d="M60 41 L79 52 L79 73 L60 84 L41 73 L41 52 Z" fill="url(#eh-icon-inner)"/>
  
  <!-- H Emblem -->
  <path d="M49 56 L55 56 L55 61 L65 61 L65 56 L71 56 L71 70 L65 70 L65 65 L55 65 L55 70 L49 70 Z" fill="#4F46E5"/>
</svg>
